;Coverted using MIDI2ASM
;Code by TriteHexagon
;Version 5.2.0 (16-Nov-2022)
;Visit github.com/TriteHexagon/Midi2ASM-Converter for up-to-date versions.
;MIDI from: https://drive.google.com/drive/folders/1Fdu5bzncseEciv4_7t4Xoxl-ApOf4Ej6

; ============================================================================================================

Music_Trade:
	channel_count 4
	channel 1, Music_Trade_Ch1
	channel 2, Music_Trade_Ch2
	channel 3, Music_Trade_Ch3

Music_Trade_Ch1:
	volume 7, 7
	duty_cycle 2
	note_type 12, 10, 7
	tempo 144
;Bar 1
	octave 4
	volume_envelope 9, 7
	note E_, 1
	rest 1
	octave 3
	note B_, 1
	rest 1
	octave 4
	note C#, 1
	rest 1
	octave 3
	note B_, 1
	octave 4
	note E_, 1
	rest 4
	note E_, 2
	rest 2
;Bar 2
	note D#, 1
	rest 1
	octave 3
	note B_, 1
	rest 1
	octave 4
	note C#, 1
	rest 1
	octave 3
	note B_, 1
	octave 4
	note D#, 1
	rest 8
;Bar 3
	note C#, 1
	rest 1
	note D#, 1
	rest 1
	note C#, 1
	octave 3
	note B_, 1
	rest 2
	octave 4
	note C#, 1
	rest 1
	note D#, 1
	rest 1
	note C#, 1
	octave 3
	note B_, 1
	rest 2
;Bar 4
	octave 4
	note D#, 4
	note C#, 4
	note D#, 1
	note E_, 1
	rest 1
	note F#, 1
	rest 1
	octave 3
	note B_, 2
	rest 1
;Bar 5
	octave 4
	note E_, 1
	rest 1
	octave 3
	note B_, 1
	rest 1
	octave 4
	note C#, 1
	rest 1
	octave 3
	note B_, 1
	octave 4
	note E_, 1
	rest 4
	note E_, 2
	rest 2
;Bar 6
	note D#, 1
	rest 1
	octave 3
	note B_, 1
	rest 1
	octave 4
	note C#, 1
	rest 1
	octave 3
	note B_, 1
	octave 4
	note D#, 1
	rest 8
;Bar 7
	note C#, 1
	rest 1
	note D#, 1
	rest 1
	note C#, 1
	octave 3
	note B_, 1
	rest 2
	octave 4
	note C#, 1
	rest 1
	note D#, 1
	rest 1
	note E_, 1
	note F#, 1
	rest 2
;Bar 8
	note F#, 4
	note E_, 4
	note F#, 1
	note G#, 1
	rest 1
	note F#, 1
	rest 1
	note D#, 2
	rest 3
;Bar 9
	octave 3
	note A_, 2
	rest 2
	note B_, 2
	rest 2
	octave 4
	note C#, 2
	rest 2
	note E_, 2
;Bar 10
	note F#, 8
	rest 2
	note E_, 2
	note D#, 2
	note C#, 2
;Bar 11
	rest 2
	octave 3
	note G#, 2
	rest 2
	note A_, 2
	rest 2
	note B_, 2
	rest 2
	octave 4
	note D#, 2
;Bar 12
	note E_, 8
	rest 2
	note D#, 2
	note C#, 2
	note D#, 2
;Bar 13
	octave 3
	note A_, 2
	note G#, 2
	note A_, 2
	note A#, 1
	note B_, 1
	rest 4
	note F#, 2
	rest 2
;Bar 14
	note B_, 2
	note A#, 2
	note B_, 2
	octave 4
	note C_, 1
	note C#, 1
	rest 8
;Bar 15
	octave 3
	note F#, 2
	note F_, 2
	note F#, 2
	note G#, 2
	note A_, 2
	octave 4
	note E_, 2
	note D#, 2
	note C#, 2
;Bar 16
	octave 3
	note B_, 2
	rest 6
	note B_, 2
	rest 6
;Bar 17
	octave 4
	note E_, 1
	rest 1
	octave 3
	note B_, 1
	rest 1
	octave 4
	note C#, 1
	rest 1
	octave 3
	note B_, 1
	octave 4
	note E_, 1
	rest 4
	note E_, 2
	rest 2
;Bar 18
	note D#, 1
	rest 1
	octave 3
	note B_, 1
	rest 1
	octave 4
	note C#, 1
	rest 1
	octave 3
	note B_, 1
	octave 4
	note D#, 1
	rest 8
;Bar 19
	note C#, 1
	rest 1
	note D#, 1
	rest 1
	note C#, 1
	octave 3
	note B_, 1
	rest 2
	octave 4
	note C#, 1
	rest 1
	note D#, 1
	rest 1
	note C#, 1
	octave 3
	note B_, 1
	rest 2
;Bar 20
	octave 4
	note D#, 4
	note C#, 4
	note D#, 1
	note E_, 1
	rest 1
	note F#, 1
	rest 1
	octave 3
	note B_, 2
	rest 1
;Bar 21
	octave 4
	note E_, 1
	rest 1
	octave 3
	note B_, 1
	rest 1
	octave 4
	note C#, 1
	rest 1
	octave 3
	note B_, 1
	octave 4
	note E_, 1
	rest 4
	note E_, 2
	rest 2
;Bar 22
	note D#, 1
	rest 1
	octave 3
	note B_, 1
	rest 1
	octave 4
	note C#, 1
	rest 1
	octave 3
	note B_, 1
	octave 4
	note D#, 1
	rest 8
;Bar 23
	note C#, 1
	rest 1
	note D#, 1
	rest 1
	note C#, 1
	octave 3
	note B_, 1
	rest 2
	octave 4
	note C#, 1
	rest 1
	note D#, 1
	rest 1
	note E_, 1
	note F#, 1
	rest 2
;Bar 24
	note F#, 4
	note E_, 4
	note F#, 1
	note G#, 1
	rest 1
	note F#, 1
	rest 1
	note D#, 2
	rest 3
;Bar 25
	octave 3
	note A_, 2
	rest 2
	note B_, 2
	rest 2
	octave 4
	note C#, 2
	rest 2
	note E_, 2
;Bar 26
	note F#, 8
	rest 2
	note E_, 2
	note D#, 2
	note C#, 2
;Bar 27
	rest 2
	octave 3
	note G#, 2
	rest 2
	note A_, 2
	rest 2
	note B_, 2
	rest 2
	octave 4
	note D#, 2
;Bar 28
	note E_, 8
	rest 2
	note D#, 2
	note C#, 2
	note D#, 2
;Bar 29
	octave 3
	note A_, 2
	note G#, 2
	note A_, 2
	note A#, 1
	note B_, 1
	rest 4
	note F#, 2
	rest 2
;Bar 30
	note B_, 2
	note A#, 2
	note B_, 2
	octave 4
	note C_, 1
	note C#, 1
	rest 8
;Bar 31
	octave 3
	note F#, 2
	note F_, 2
	note F#, 2
	note G#, 2
	note A_, 2
	octave 4
	note E_, 2
	note D#, 2
	note C#, 2
;Bar 32
	octave 3
	note B_, 2
	rest 6
	note B_, 2
	sound_ret

; ============================================================================================================

Music_Trade_Ch2:
	duty_cycle 1
	note_type 12, 10, 7
;Bar 1
	octave 4
	volume_envelope 9, 7
	note E_, 1
	rest 1
	note G#, 1
	rest 1
	note F#, 1
	rest 1
	note A_, 1
	note G#, 1
	rest 8
;Bar 2
	note D#, 1
	rest 1
	note F#, 1
	rest 1
	note E_, 1
	rest 1
	note G#, 1
	note F#, 1
	rest 4
	octave 3
	note B_, 2
	rest 2
;Bar 3
	octave 4
	note C#, 1
	rest 1
	note D#, 1
	rest 1
	note E_, 1
	note F#, 1
	rest 2
	note C#, 1
	rest 1
	note D#, 1
	rest 1
	note E_, 1
	note F#, 1
	rest 2
;Bar 4
	note F#, 4
	note E_, 4
	note F#, 1
	note G#, 1
	rest 1
	note F#, 1
	rest 1
	note D#, 2
	rest 1
;Bar 5
	note E_, 1
	rest 1
	note G#, 1
	rest 1
	note F#, 1
	rest 1
	note A_, 1
	note G#, 1
	rest 8
;Bar 6
	note D#, 1
	rest 1
	note F#, 1
	rest 1
	note E_, 1
	rest 1
	note G#, 1
	note F#, 1
	rest 4
	octave 3
	note B_, 2
	rest 2
;Bar 7
	octave 4
	note C#, 1
	rest 1
	note D#, 1
	rest 1
	note E_, 1
	note F#, 1
	rest 2
	note C#, 1
	rest 1
	note D#, 1
	rest 1
	note E_, 1
	note F#, 1
	rest 2
;Bar 8
	note F#, 4
	note E_, 4
	note F#, 1
	note G#, 1
	rest 1
	note B_, 1
	rest 1
	note F#, 2
	rest 1
;Bar 9
	note C#, 2
	rest 2
	note D#, 2
	rest 2
	note E_, 2
	rest 2
	note G#, 2
	rest 2
;Bar 10
	note D#, 8
	rest 2
	note E_, 2
	note D#, 2
	note C#, 2
;Bar 11
	octave 3
	note B_, 2
	rest 2
	octave 4
	note C#, 2
	rest 2
	note D#, 2
	rest 2
	note F#, 2
	rest 2
;Bar 12
	note C#, 8
	rest 2
	note D#, 2
	note C#, 2
	octave 3
	note B_, 2
;Bar 13
	note A_, 2
	note G#, 2
	note A_, 2
	note G#, 1
	note F#, 1
	rest 8
;Bar 14
	note B_, 2
	note A#, 2
	note B_, 2
	note A_, 1
	note G#, 1
	rest 4
	note G#, 2
	rest 2
;Bar 15
	note F#, 2
	note F_, 2
	note F#, 2
	note G#, 2
	note A_, 2
	note E_, 2
	note C#, 2
	note E_, 2
;Bar 16
	note F#, 2
	rest 6
	note D#, 2
	rest 6
;Bar 17
	octave 4
	note E_, 1
	rest 1
	note G#, 1
	rest 1
	note F#, 1
	rest 1
	note A_, 1
	note G#, 1
	rest 8
;Bar 18
	note D#, 1
	rest 1
	note F#, 1
	rest 1
	note E_, 1
	rest 1
	note G#, 1
	note F#, 1
	rest 4
	octave 3
	note B_, 2
	rest 2
;Bar 19
	octave 4
	note C#, 1
	rest 1
	note D#, 1
	rest 1
	note E_, 1
	note F#, 1
	rest 2
	note C#, 1
	rest 1
	note D#, 1
	rest 1
	note E_, 1
	note F#, 1
	rest 2
;Bar 20
	note F#, 4
	note E_, 4
	note F#, 1
	note G#, 1
	rest 1
	note F#, 1
	rest 1
	note D#, 2
	rest 1
;Bar 21
	note E_, 1
	rest 1
	note G#, 1
	rest 1
	note F#, 1
	rest 1
	note A_, 1
	note G#, 1
	rest 8
;Bar 22
	note D#, 1
	rest 1
	note F#, 1
	rest 1
	note E_, 1
	rest 1
	note G#, 1
	note F#, 1
	rest 4
	octave 3
	note B_, 2
	rest 2
;Bar 23
	octave 4
	note C#, 1
	rest 1
	note D#, 1
	rest 1
	note E_, 1
	note F#, 1
	rest 2
	note C#, 1
	rest 1
	note D#, 1
	rest 1
	note E_, 1
	note F#, 1
	rest 2
;Bar 24
	note F#, 4
	note E_, 4
	note F#, 1
	note G#, 1
	rest 1
	note B_, 1
	rest 1
	note F#, 2
	rest 1
;Bar 25
	note C#, 2
	rest 2
	note D#, 2
	rest 2
	note E_, 2
	rest 2
	note G#, 2
	rest 2
;Bar 26
	note D#, 8
	rest 2
	note E_, 2
	note D#, 2
	note C#, 2
;Bar 27
	octave 3
	note B_, 2
	rest 2
	octave 4
	note C#, 2
	rest 2
	note D#, 2
	rest 2
	note F#, 2
	rest 2
;Bar 28
	note C#, 8
	rest 2
	note D#, 2
	note C#, 2
	octave 3
	note B_, 2
;Bar 29
	note A_, 2
	note G#, 2
	note A_, 2
	note G#, 1
	note F#, 1
	rest 8
;Bar 30
	note B_, 2
	note A#, 2
	note B_, 2
	note A_, 1
	note G#, 1
	rest 4
	note G#, 2
	rest 2
;Bar 31
	note F#, 2
	note F_, 2
	note F#, 2
	note G#, 2
	note A_, 2
	note E_, 2
	note C#, 2
	note E_, 2
;Bar 32
	note F#, 2
	rest 6
	note D#, 2
	sound_ret

; ============================================================================================================

Music_Trade_Ch3:
	note_type 12, 1, 0
;Bar 1
	octave 4
	volume_envelope 2, 0
	note E_, 2
	rest 2
	octave 3
	note B_, 2
	octave 4
	note E_, 2
	rest 2
	note E_, 2
	note G#, 2
	note E_, 2
;Bar 2
	note D#, 2
	rest 2
	octave 3
	note B_, 2
	octave 4
	note D#, 2
	rest 2
	note D#, 2
	note G#, 2
	note D#, 2
;Bar 3
	note C#, 2
	rest 2
	octave 3
	note A_, 2
	octave 4
	note C#, 2
	rest 2
	octave 3
	note A_, 2
	octave 4
	note C#, 2
	octave 3
	note A_, 2
;Bar 4
	octave 4
	note D#, 4
	note C#, 2
	octave 3
	note B_, 4
	note B_, 2
	octave 4
	note C#, 2
	note D#, 2
;Bar 5
	note E_, 2
	rest 2
	octave 3
	note B_, 2
	octave 4
	note E_, 2
	rest 2
	note E_, 2
	note G#, 2
	note E_, 2
;Bar 6
	note D#, 2
	rest 2
	octave 3
	note B_, 2
	octave 4
	note D#, 2
	rest 2
	note D#, 2
	note G#, 2
	note D#, 2
;Bar 7
	note C#, 2
	rest 2
	octave 3
	note A_, 2
	octave 4
	note C#, 2
	rest 2
	octave 3
	note A_, 2
	octave 4
	note C#, 2
	octave 3
	note A_, 2
;Bar 8
	octave 4
	note D#, 4
	note C#, 4
	note D#, 1
	note E_, 1
	rest 1
	note F#, 1
	rest 1
	note C#, 2
	rest 1
;Bar 9
	note C#, 4
	note D#, 4
	note E_, 4
	note G#, 4
;Bar 10
	note F#, 4
	rest 2
	note F#, 4
	note E_, 2
	note D#, 2
	note E_, 2
;Bar 11
	octave 3
	note B_, 4
	octave 4
	note C#, 4
	note D#, 4
	note F#, 4
;Bar 12
	note E_, 4
	rest 2
	note E_, 4
	note E_, 2
	note D#, 2
	note C#, 2
;Bar 13
	note E_, 2
	note D#, 2
	note E_, 2
	note F_, 1
	note F#, 1
	rest 4
	note D#, 2
	rest 2
;Bar 14
	note F#, 2
	note D#, 2
	note F#, 2
	note G_, 1
	note G#, 1
	rest 4
	note E_, 2
	rest 2
;Bar 15
	note A_, 12
	note G#, 4
;Bar 16
	note F#, 2
	rest 6
	note D#, 2
	rest 6
;Bar 17
	note E_, 2
	rest 2
	octave 3
	note B_, 2
	octave 4
	note E_, 2
	rest 2
	note E_, 2
	note G#, 2
	note E_, 2
;Bar 18
	note D#, 2
	rest 2
	octave 3
	note B_, 2
	octave 4
	note D#, 2
	rest 2
	note D#, 2
	note G#, 2
	note D#, 2
;Bar 19
	note C#, 2
	rest 2
	octave 3
	note A_, 2
	octave 4
	note C#, 2
	rest 2
	octave 3
	note A_, 2
	octave 4
	note C#, 2
	octave 3
	note A_, 2
;Bar 20
	octave 4
	note D#, 4
	note C#, 2
	octave 3
	note B_, 4
	note B_, 2
	octave 4
	note C#, 2
	note D#, 2
;Bar 21
	note E_, 2
	rest 2
	octave 3
	note B_, 2
	octave 4
	note E_, 2
	rest 2
	note E_, 2
	note G#, 2
	note E_, 2
;Bar 22
	note D#, 2
	rest 2
	octave 3
	note B_, 2
	octave 4
	note D#, 2
	rest 2
	note D#, 2
	note G#, 2
	note D#, 2
;Bar 23
	note C#, 2
	rest 2
	octave 3
	note A_, 2
	octave 4
	note C#, 2
	rest 2
	octave 3
	note A_, 2
	octave 4
	note C#, 2
	octave 3
	note A_, 2
;Bar 24
	octave 4
	note D#, 4
	note C#, 4
	note D#, 1
	note E_, 1
	rest 1
	note F#, 1
	rest 1
	note C#, 2
	rest 1
;Bar 25
	note C#, 4
	note D#, 4
	note E_, 4
	note G#, 4
;Bar 26
	note F#, 4
	rest 2
	note F#, 4
	note E_, 2
	note D#, 2
	note E_, 2
;Bar 27
	octave 3
	note B_, 4
	octave 4
	note C#, 4
	note D#, 4
	note F#, 4
;Bar 28
	note E_, 4
	rest 2
	note E_, 4
	note E_, 2
	note D#, 2
	note C#, 2
;Bar 29
	note E_, 2
	note D#, 2
	note E_, 2
	note F_, 1
	note F#, 1
	rest 4
	note D#, 2
	rest 2
;Bar 30
	note F#, 2
	note D#, 2
	note F#, 2
	note G_, 1
	note G#, 1
	rest 4
	note E_, 2
	rest 2
;Bar 31
	note A_, 12
	note G#, 4
;Bar 32
	note F#, 2
	rest 6
	note D#, 2
	sound_ret

; ============================================================================================================

